<svg width="26" height="28" viewBox="0 0 26 28" fill="none" xmlns="http://www.w3.org/2000/svg">
<path d="M24 0H4C2.895 0 2 0.895 2 2V4H1C0.448 4 0 4.448 0 5C0 5.552 0.448 6 1 6C2.795 6 -0.145 6 4 6C4.552 6 5 6.448 5 7C5 7.552 4.552 8 4 8H2V20H1C0.448 20 0 20.448 0 21C0 21.552 0.448 22 1 22C2.795 22 -0.145 22 4 22C4.552 22 5 22.448 5 23C5 23.552 4.552 24 4 24H2V26C2 27.105 2.895 28 4 28H24C25.105 28 26 27.105 26 26V2C26 0.895 25.105 0 24 0ZM14 5C16.209 5 18 6.791 18 9C18 11.209 16.209 13 14 13C11.791 13 10 11.209 10 9C10 6.791 11.791 5 14 5ZM20 22H8V20C8 16.686 10.686 14 14 14C17.314 14 20 16.686 20 20V22Z" fill="#23D1AE"/>
</svg>
