<svg width="370" height="370" viewBox="0 0 370 370" fill="none" xmlns="http://www.w3.org/2000/svg">
<path d="M310 360H60C32.39 360 10 337.61 10 310V60C10 32.39 32.39 10 60 10H310C337.61 10 360 32.39 360 60V310C360 337.61 337.61 360 310 360Z" fill="#23D1AE" stroke="white" stroke-width="20" stroke-miterlimit="10" stroke-linecap="round" stroke-linejoin="round"/>
<path d="M265 271.67H105C93.95 271.67 85 262.72 85 251.67C85 240.62 93.95 231.67 105 231.67H265C276.05 231.67 285 240.62 285 251.67C285 262.72 276.05 271.67 265 271.67ZM265 205H105C93.95 205 85 196.05 85 185C85 173.95 93.95 165 105 165H265C276.05 165 285 173.95 285 185C285 196.05 276.05 205 265 205ZM265 138.33H105C93.95 138.33 85 129.38 85 118.33C85 107.28 93.95 98.33 105 98.33H265C276.05 98.33 285 107.28 285 118.33C285 129.38 276.05 138.33 265 138.33Z" fill="#FBFBFB"/>
</svg>
