<svg width="32" height="32" viewBox="0 0 32 32" fill="none" xmlns="http://www.w3.org/2000/svg">
<path d="M15.45 31.922C15.8094 32.0256 16.1907 32.0256 16.55 31.922C28.928 28.386 30.75 15.874 29.986 9.75C29.9245 9.26666 29.6889 8.82232 29.3233 8.50019C28.9577 8.17806 28.4873 8.00023 28 8C27.714 7.978 26 7.682 26 4C26 3.47 25.79 2.96 25.414 2.586C24.982 2.154 22.5 0 16 0C9.50002 0 7.01802 2.154 6.58602 2.586C6.40007 2.77151 6.25258 2.99191 6.15202 3.23457C6.05146 3.47722 5.99981 3.73734 6.00002 4C6.00002 7.682 4.28602 7.978 3.94202 8.002C2.93402 8.002 2.14002 8.752 2.01402 9.752C1.25002 15.874 3.07402 28.386 15.45 31.922ZM4.00002 10C4.00002 10 8.00002 10 8.00002 4C8.00002 4 10 2 16 2V16H27.778C26.99 20.982 24.346 27.616 16 30V16H4.22202C3.69002 12.624 4.00002 10 4.00002 10Z" fill="white"/>
</svg>
